<svg width="261" height="54" viewBox="0 0 261 54" fill="none" xmlns="http://www.w3.org/2000/svg">
<rect width="261" height="54" rx="15" fill="#F0BF5F"/>
<path d="M30.946 29.68C30.946 30.408 31.002 30.94 31.114 31.276C31.226 31.584 31.436 31.794 31.744 31.906C32.08 32.018 32.612 32.074 33.34 32.074H34.768C36.952 32.074 38.842 31.5 40.438 30.352C42.034 29.176 43.098 27.594 43.63 25.606C43.63 25.55 43.686 25.522 43.798 25.522C43.854 25.522 43.91 25.55 43.966 25.606C44.05 25.634 44.092 25.662 44.092 25.69C43.84 28.462 43.714 30.772 43.714 32.62C43.714 32.844 43.658 33.012 43.546 33.124C43.462 33.208 43.308 33.25 43.084 33.25H23.26C23.204 33.25 23.176 33.166 23.176 32.998C23.176 32.83 23.204 32.746 23.26 32.746C24.156 32.746 24.8 32.676 25.192 32.536C25.612 32.396 25.892 32.13 26.032 31.738C26.2 31.318 26.284 30.688 26.284 29.848V10.402C26.284 9.562 26.2 8.946 26.032 8.554C25.892 8.162 25.612 7.896 25.192 7.756C24.772 7.588 24.128 7.504 23.26 7.504C23.204 7.504 23.176 7.42 23.176 7.252C23.176 7.084 23.204 7 23.26 7L25.402 7.042C26.69 7.098 27.754 7.126 28.594 7.126C29.434 7.126 30.498 7.098 31.786 7.042L33.928 7C34.012 7 34.054 7.084 34.054 7.252C34.054 7.42 34.012 7.504 33.928 7.504C33.06 7.504 32.416 7.588 31.996 7.756C31.576 7.896 31.296 8.176 31.156 8.596C31.016 8.988 30.946 9.604 30.946 10.444V29.68Z" fill="white"/>
<path d="M62.4847 30.982C62.5967 30.982 62.6667 31.052 62.6947 31.192C62.7507 31.304 62.7227 31.388 62.6107 31.444L58.2847 33.502C58.1727 33.558 58.0327 33.586 57.8647 33.586C57.4167 33.586 56.9827 33.348 56.5627 32.872C56.1707 32.396 55.8907 31.752 55.7227 30.94L53.9167 32.2C53.2727 32.676 52.6707 33.026 52.1107 33.25C51.5507 33.446 50.9207 33.544 50.2207 33.544C49.0167 33.544 48.1067 33.278 47.4907 32.746C46.8747 32.214 46.5667 31.472 46.5667 30.52C46.5667 29.764 46.7487 29.162 47.1127 28.714C47.4767 28.238 47.9247 27.874 48.4567 27.622C49.0167 27.342 49.7867 27.034 50.7667 26.698L51.8167 26.32L55.5967 24.934V22.54C55.5967 20.748 55.4427 19.446 55.1347 18.634C54.8547 17.822 54.3647 17.416 53.6647 17.416C52.1807 17.416 51.3407 18.564 51.1447 20.86C51.0607 21.7 50.8087 22.302 50.3887 22.666C49.9967 23.03 49.4367 23.212 48.7087 23.212C48.0087 23.212 47.4907 23.072 47.1547 22.792C46.8467 22.484 46.6927 22.092 46.6927 21.616C46.6927 20.776 47.1827 19.978 48.1627 19.222C49.1427 18.438 50.3187 17.808 51.6907 17.332C53.0907 16.856 54.3227 16.618 55.3867 16.618C56.6187 16.618 57.6127 17.01 58.3687 17.794C59.1527 18.55 59.5447 19.712 59.5447 21.28V28.714C59.5447 29.526 59.6847 30.156 59.9647 30.604C60.2727 31.052 60.6927 31.276 61.2247 31.276C61.6167 31.276 62.0227 31.178 62.4427 30.982H62.4847ZM55.6387 30.226C55.6107 30.114 55.5967 29.932 55.5967 29.68V25.648L53.7907 26.488C53.7067 26.516 53.4267 26.628 52.9507 26.824C52.4747 26.992 52.0547 27.286 51.6907 27.706C51.3547 28.126 51.1867 28.616 51.1867 29.176C51.1867 29.848 51.3967 30.38 51.8167 30.772C52.2647 31.136 52.7687 31.318 53.3287 31.318C53.7767 31.318 54.2387 31.164 54.7147 30.856L55.6387 30.226Z" fill="white"/>
<path d="M73.0645 31.528C74.7165 31.556 76.0605 31.654 77.0965 31.822C78.1605 31.99 79.0425 32.41 79.7425 33.082C80.4705 33.726 80.8345 34.72 80.8345 36.064C80.8345 37.632 80.3445 39.102 79.3645 40.474C78.4125 41.874 77.1105 42.994 75.4585 43.834C73.8345 44.674 72.0845 45.094 70.2085 45.094C68.2765 45.094 66.6945 44.646 65.4625 43.75C64.2305 42.882 63.6145 41.734 63.6145 40.306C63.6145 38.346 65.0285 36.442 67.8565 34.594C65.8405 34.202 64.8325 33.194 64.8325 31.57C64.8325 29.834 65.8125 28.308 67.7725 26.992C66.7085 26.488 65.8685 25.788 65.2525 24.892C64.6645 23.968 64.3705 23.002 64.3705 21.994C64.3705 20.874 64.7345 19.922 65.4625 19.138C66.1905 18.354 67.1145 17.766 68.2345 17.374C69.3825 16.954 70.5445 16.744 71.7205 16.744C73.4845 16.744 74.9965 17.192 76.2565 18.088C77.7125 17.108 79.2245 16.618 80.7925 16.618C81.0165 16.618 81.1285 17.01 81.1285 17.794C81.1285 18.214 81.0725 18.662 80.9605 19.138C80.8485 19.586 80.7365 19.768 80.6245 19.684C79.4765 19.208 78.4405 18.97 77.5165 18.97H77.1805C77.9365 19.866 78.3145 20.874 78.3145 21.994C78.3145 23.114 77.9505 24.108 77.2225 24.976C76.4945 25.844 75.5565 26.516 74.4085 26.992C73.2885 27.44 72.1265 27.664 70.9225 27.664C70.0545 27.664 69.2565 27.538 68.5285 27.286C68.0805 27.762 67.8565 28.364 67.8565 29.092C67.8565 29.848 68.0525 30.394 68.4445 30.73C68.8645 31.066 69.4105 31.276 70.0825 31.36C70.7545 31.444 71.7485 31.5 73.0645 31.528ZM70.3345 17.542C69.0745 17.542 68.4445 18.606 68.4445 20.734C68.4445 21.91 68.6125 22.974 68.9485 23.926C69.2845 24.85 69.7185 25.578 70.2505 26.11C70.8105 26.642 71.3985 26.908 72.0145 26.908C72.6305 26.908 73.1485 26.6 73.5685 25.984C73.9885 25.368 74.1985 24.43 74.1985 23.17C74.1985 21.966 74.0025 20.944 73.6105 20.104C73.2185 19.236 72.7145 18.592 72.0985 18.172C71.5105 17.752 70.9225 17.542 70.3345 17.542ZM72.7285 43.75C74.1565 43.75 75.2905 43.302 76.1305 42.406C76.9705 41.51 77.3905 40.292 77.3905 38.752C77.3905 37.548 77.1245 36.666 76.5925 36.106C76.0885 35.574 75.4165 35.238 74.5765 35.098C73.7645 34.986 72.5745 34.916 71.0065 34.888C70.7545 34.888 70.4045 34.874 69.9565 34.846C69.5085 34.818 69.1305 34.79 68.8225 34.762C67.8705 35.462 67.3945 36.582 67.3945 38.122C67.3945 39.914 67.9125 41.3 68.9485 42.28C70.0125 43.26 71.2725 43.75 72.7285 43.75Z" fill="white"/>
<path d="M90.9755 33.796C89.2395 33.796 87.7135 33.404 86.3975 32.62C85.1095 31.808 84.1155 30.73 83.4155 29.386C82.7155 28.014 82.3655 26.53 82.3655 24.934C82.3655 23.114 82.8275 21.574 83.7515 20.314C84.6755 19.026 85.8515 18.074 87.2795 17.458C88.7075 16.814 90.1775 16.492 91.6895 16.492C93.4255 16.492 94.9375 16.898 96.2255 17.71C97.5135 18.522 98.4935 19.6 99.1655 20.944C99.8655 22.26 100.216 23.674 100.216 25.186C100.216 26.866 99.7955 28.364 98.9555 29.68C98.1155 30.968 96.9815 31.976 95.5535 32.704C94.1535 33.432 92.6275 33.796 90.9755 33.796ZM92.2355 32.914C93.3275 32.914 94.1535 32.382 94.7135 31.318C95.3015 30.226 95.5955 28.672 95.5955 26.656C95.5955 24.696 95.3435 23.016 94.8395 21.616C94.3355 20.216 93.6775 19.166 92.8655 18.466C92.0535 17.738 91.1855 17.374 90.2615 17.374C88.0215 17.374 86.9015 19.376 86.9015 23.38C86.9015 25.256 87.1395 26.922 87.6155 28.378C88.0915 29.806 88.7355 30.926 89.5475 31.738C90.3595 32.522 91.2555 32.914 92.2355 32.914Z" fill="white"/>
<path d="M111.524 33.796C109.788 33.796 108.262 33.404 106.946 32.62C105.658 31.808 104.664 30.73 103.964 29.386C103.264 28.014 102.914 26.53 102.914 24.934C102.914 23.114 103.376 21.574 104.3 20.314C105.224 19.026 106.4 18.074 107.828 17.458C109.256 16.814 110.726 16.492 112.238 16.492C113.974 16.492 115.486 16.898 116.774 17.71C118.062 18.522 119.042 19.6 119.714 20.944C120.414 22.26 120.764 23.674 120.764 25.186C120.764 26.866 120.344 28.364 119.504 29.68C118.664 30.968 117.53 31.976 116.102 32.704C114.702 33.432 113.176 33.796 111.524 33.796ZM112.784 32.914C113.876 32.914 114.702 32.382 115.262 31.318C115.85 30.226 116.144 28.672 116.144 26.656C116.144 24.696 115.892 23.016 115.388 21.616C114.884 20.216 114.226 19.166 113.414 18.466C112.602 17.738 111.734 17.374 110.81 17.374C108.57 17.374 107.45 19.376 107.45 23.38C107.45 25.256 107.688 26.922 108.164 28.378C108.64 29.806 109.284 30.926 110.096 31.738C110.908 32.522 111.804 32.914 112.784 32.914Z" fill="white"/>
<path d="M143.497 32.746C143.581 32.746 143.623 32.83 143.623 32.998C143.623 33.166 143.581 33.25 143.497 33.25C142.769 33.25 142.195 33.236 141.775 33.208L139.255 33.166L136.819 33.208C136.371 33.236 135.783 33.25 135.055 33.25C134.971 33.25 134.929 33.166 134.929 32.998C134.929 32.83 134.971 32.746 135.055 32.746C135.923 32.746 136.511 32.55 136.819 32.158C137.127 31.738 137.281 30.968 137.281 29.848V23.8C137.281 22.288 137.001 21.168 136.441 20.44C135.909 19.712 135.055 19.348 133.879 19.348C133.207 19.348 132.507 19.488 131.779 19.768C131.079 20.048 130.463 20.426 129.931 20.902V29.848C129.931 30.968 130.085 31.738 130.393 32.158C130.729 32.55 131.331 32.746 132.199 32.746C132.283 32.746 132.325 32.83 132.325 32.998C132.325 33.166 132.283 33.25 132.199 33.25C131.471 33.25 130.897 33.236 130.477 33.208L127.957 33.166L125.479 33.208C125.059 33.236 124.485 33.25 123.757 33.25C123.673 33.25 123.631 33.166 123.631 32.998C123.631 32.83 123.673 32.746 123.757 32.746C124.625 32.746 125.213 32.55 125.521 32.158C125.829 31.738 125.983 30.968 125.983 29.848V21.952C125.983 21.084 125.871 20.454 125.647 20.062C125.451 19.642 125.129 19.432 124.681 19.432C124.205 19.432 123.533 19.628 122.665 20.02H122.581C122.497 20.02 122.427 19.95 122.371 19.81C122.343 19.67 122.357 19.586 122.413 19.558L128.251 16.702C128.419 16.646 128.517 16.618 128.545 16.618C128.853 16.618 129.147 16.926 129.427 17.542C129.707 18.13 129.875 18.942 129.931 19.978C131.863 17.682 133.991 16.534 136.315 16.534C137.827 16.534 139.017 17.024 139.885 18.004C140.781 18.956 141.229 20.216 141.229 21.784V29.848C141.229 30.968 141.383 31.738 141.691 32.158C142.027 32.55 142.629 32.746 143.497 32.746Z" fill="white"/>
<path d="M161.825 30.982C161.937 30.982 162.007 31.052 162.035 31.192C162.091 31.304 162.063 31.388 161.951 31.444L157.625 33.502C157.513 33.558 157.373 33.586 157.205 33.586C156.757 33.586 156.323 33.348 155.903 32.872C155.511 32.396 155.231 31.752 155.063 30.94L153.257 32.2C152.613 32.676 152.011 33.026 151.451 33.25C150.891 33.446 150.261 33.544 149.561 33.544C148.357 33.544 147.447 33.278 146.831 32.746C146.215 32.214 145.907 31.472 145.907 30.52C145.907 29.764 146.089 29.162 146.453 28.714C146.817 28.238 147.265 27.874 147.797 27.622C148.357 27.342 149.127 27.034 150.107 26.698L151.157 26.32L154.937 24.934V22.54C154.937 20.748 154.783 19.446 154.475 18.634C154.195 17.822 153.705 17.416 153.005 17.416C151.521 17.416 150.681 18.564 150.485 20.86C150.401 21.7 150.149 22.302 149.729 22.666C149.337 23.03 148.777 23.212 148.049 23.212C147.349 23.212 146.831 23.072 146.495 22.792C146.187 22.484 146.033 22.092 146.033 21.616C146.033 20.776 146.523 19.978 147.503 19.222C148.483 18.438 149.659 17.808 151.031 17.332C152.431 16.856 153.663 16.618 154.727 16.618C155.959 16.618 156.953 17.01 157.709 17.794C158.493 18.55 158.885 19.712 158.885 21.28V28.714C158.885 29.526 159.025 30.156 159.305 30.604C159.613 31.052 160.033 31.276 160.565 31.276C160.957 31.276 161.363 31.178 161.783 30.982H161.825ZM154.979 30.226C154.951 30.114 154.937 29.932 154.937 29.68V25.648L153.131 26.488C153.047 26.516 152.767 26.628 152.291 26.824C151.815 26.992 151.395 27.286 151.031 27.706C150.695 28.126 150.527 28.616 150.527 29.176C150.527 29.848 150.737 30.38 151.157 30.772C151.605 31.136 152.109 31.318 152.669 31.318C153.117 31.318 153.579 31.164 154.055 30.856L154.979 30.226Z" fill="white"/>
<path d="M93.51 46.43C92.85 46.43 92.29 46.29 91.83 46.01C91.38 45.72 91.04 45.35 90.81 44.9C90.59 44.44 90.48 43.96 90.48 43.46C90.48 42.83 90.655 42.28 91.005 41.81C91.355 41.33 91.8 40.965 92.34 40.715C92.89 40.455 93.45 40.325 94.02 40.325C94.5 40.325 94.93 40.425 95.31 40.625C95.7 40.825 95.895 41.1 95.895 41.45C95.895 41.64 95.82 41.805 95.67 41.945C95.53 42.075 95.33 42.14 95.07 42.14C94.83 42.14 94.64 42.08 94.5 41.96C94.36 41.83 94.245 41.635 94.155 41.375C94.065 41.095 93.975 40.905 93.885 40.805C93.805 40.695 93.655 40.64 93.435 40.64C93.005 40.64 92.66 40.855 92.4 41.285C92.15 41.705 92.025 42.265 92.025 42.965C92.025 43.795 92.21 44.46 92.58 44.96C92.95 45.45 93.54 45.695 94.35 45.695C94.62 45.695 94.85 45.665 95.04 45.605C95.24 45.545 95.49 45.445 95.79 45.305H95.805C95.835 45.305 95.86 45.32 95.88 45.35C95.91 45.38 95.915 45.405 95.895 45.425C95.525 45.765 95.155 46.02 94.785 46.19C94.415 46.35 93.99 46.43 93.51 46.43Z" fill="white"/>
<path d="M102.104 45.26C102.124 45.26 102.144 45.28 102.164 45.32C102.194 45.36 102.199 45.39 102.179 45.41C101.809 45.77 101.434 46.03 101.054 46.19C100.674 46.35 100.259 46.43 99.8092 46.43C99.1792 46.43 98.6342 46.3 98.1742 46.04C97.7142 45.77 97.3642 45.415 97.1242 44.975C96.8842 44.525 96.7642 44.04 96.7642 43.52C96.7642 42.94 96.9092 42.405 97.1992 41.915C97.4892 41.425 97.8892 41.04 98.3992 40.76C98.9192 40.47 99.5042 40.325 100.154 40.325C100.774 40.325 101.254 40.465 101.594 40.745C101.934 41.025 102.104 41.46 102.104 42.05C102.104 42.36 102.049 42.515 101.939 42.515L98.2942 42.53C98.2842 42.6 98.2792 42.715 98.2792 42.875C98.2792 43.755 98.4792 44.445 98.8792 44.945C99.2892 45.445 99.8742 45.695 100.634 45.695C100.904 45.695 101.134 45.665 101.324 45.605C101.514 45.545 101.764 45.435 102.074 45.275L102.104 45.26ZM99.5842 40.625C99.2542 40.625 98.9792 40.77 98.7592 41.06C98.5392 41.34 98.3942 41.73 98.3242 42.23L100.499 42.2C100.489 41.69 100.414 41.3 100.274 41.03C100.134 40.76 99.9042 40.625 99.5842 40.625Z" fill="white"/>
<path d="M104.204 46.25C104.174 46.25 104.159 46.22 104.159 46.16C104.159 46.1 104.174 46.07 104.204 46.07C104.444 46.07 104.619 46.045 104.729 45.995C104.849 45.945 104.929 45.85 104.969 45.71C105.009 45.56 105.029 45.335 105.029 45.035V41.705C105.029 41.355 104.999 41.115 104.939 40.985C104.889 40.855 104.784 40.79 104.624 40.79C104.334 40.79 104.049 40.945 103.769 41.255C103.499 41.565 103.304 41.95 103.184 42.41C103.174 42.43 103.139 42.44 103.079 42.44C103.029 42.44 103.004 42.43 103.004 42.41L102.974 41.435C102.954 41.035 102.944 40.75 102.944 40.58C102.944 40.52 102.949 40.485 102.959 40.475C102.969 40.455 103.004 40.445 103.064 40.445C103.274 40.445 103.459 40.45 103.619 40.46L105.689 40.475L107.804 40.46C107.974 40.45 108.169 40.445 108.389 40.445C108.459 40.445 108.499 40.455 108.509 40.475C108.519 40.485 108.524 40.52 108.524 40.58C108.474 41.58 108.449 42.19 108.449 42.41C108.449 42.43 108.419 42.44 108.359 42.44C108.309 42.44 108.279 42.43 108.269 42.41C108.149 41.95 107.949 41.565 107.669 41.255C107.399 40.945 107.119 40.79 106.829 40.79C106.669 40.79 106.559 40.855 106.499 40.985C106.449 41.115 106.424 41.355 106.424 41.705V45.035C106.424 45.335 106.444 45.56 106.484 45.71C106.524 45.85 106.599 45.945 106.709 45.995C106.829 46.045 107.004 46.07 107.234 46.07C107.264 46.07 107.279 46.1 107.279 46.16C107.279 46.22 107.264 46.25 107.234 46.25C106.954 46.25 106.739 46.245 106.589 46.235L105.749 46.22L104.879 46.235C104.719 46.245 104.494 46.25 104.204 46.25Z" fill="white"/>
<path d="M112.812 42.815C114.352 42.815 115.122 43.335 115.122 44.375C115.122 44.945 114.902 45.405 114.462 45.755C114.032 46.105 113.467 46.28 112.767 46.28L111.957 46.25C111.477 46.23 111.132 46.22 110.922 46.22L110.052 46.235C109.892 46.245 109.667 46.25 109.377 46.25C109.347 46.25 109.332 46.22 109.332 46.16C109.332 46.1 109.347 46.07 109.377 46.07C109.617 46.07 109.792 46.045 109.902 45.995C110.022 45.945 110.102 45.85 110.142 45.71C110.182 45.56 110.202 45.335 110.202 45.035V41.675C110.202 41.375 110.182 41.155 110.142 41.015C110.102 40.865 110.022 40.765 109.902 40.715C109.792 40.665 109.622 40.64 109.392 40.64C109.362 40.64 109.347 40.61 109.347 40.55C109.347 40.49 109.362 40.46 109.392 40.46C109.672 40.46 109.887 40.465 110.037 40.475L110.922 40.49L111.852 40.475C112.032 40.465 112.277 40.46 112.587 40.46C112.607 40.46 112.617 40.49 112.617 40.55C112.617 40.61 112.607 40.64 112.587 40.64C112.297 40.64 112.082 40.67 111.942 40.73C111.812 40.79 111.722 40.895 111.672 41.045C111.622 41.185 111.597 41.405 111.597 41.705V42.95C111.967 42.86 112.372 42.815 112.812 42.815ZM112.452 46.055C112.852 46.055 113.147 45.95 113.337 45.74C113.527 45.52 113.622 45.175 113.622 44.705C113.622 43.665 113.172 43.145 112.272 43.145C112.062 43.145 111.837 43.175 111.597 43.235V45.035C111.597 45.395 111.657 45.655 111.777 45.815C111.897 45.975 112.122 46.055 112.452 46.055Z" fill="white"/>
<path d="M122.486 46.445C121.866 46.445 121.321 46.305 120.851 46.025C120.391 45.735 120.036 45.35 119.786 44.87C119.536 44.38 119.411 43.85 119.411 43.28C119.411 42.63 119.576 42.08 119.906 41.63C120.236 41.17 120.656 40.83 121.166 40.61C121.676 40.38 122.201 40.265 122.741 40.265C123.361 40.265 123.901 40.41 124.361 40.7C124.821 40.99 125.171 41.375 125.411 41.855C125.661 42.325 125.786 42.83 125.786 43.37C125.786 43.97 125.636 44.505 125.336 44.975C125.036 45.435 124.631 45.795 124.121 46.055C123.621 46.315 123.076 46.445 122.486 46.445ZM122.936 46.13C123.326 46.13 123.621 45.94 123.821 45.56C124.031 45.17 124.136 44.615 124.136 43.895C124.136 43.195 124.046 42.595 123.866 42.095C123.686 41.595 123.451 41.22 123.161 40.97C122.871 40.71 122.561 40.58 122.231 40.58C121.431 40.58 121.031 41.295 121.031 42.725C121.031 43.395 121.116 43.99 121.286 44.51C121.456 45.02 121.686 45.42 121.976 45.71C122.266 45.99 122.586 46.13 122.936 46.13Z" fill="white"/>
<path d="M127.92 46.25C127.89 46.25 127.875 46.22 127.875 46.16C127.875 46.1 127.89 46.07 127.92 46.07C128.16 46.07 128.335 46.045 128.445 45.995C128.565 45.945 128.645 45.85 128.685 45.71C128.725 45.56 128.745 45.335 128.745 45.035V41.705C128.745 41.355 128.715 41.115 128.655 40.985C128.605 40.855 128.5 40.79 128.34 40.79C128.05 40.79 127.765 40.945 127.485 41.255C127.215 41.565 127.02 41.95 126.9 42.41C126.89 42.43 126.855 42.44 126.795 42.44C126.745 42.44 126.72 42.43 126.72 42.41L126.69 41.435C126.67 41.035 126.66 40.75 126.66 40.58C126.66 40.52 126.665 40.485 126.675 40.475C126.685 40.455 126.72 40.445 126.78 40.445C126.99 40.445 127.175 40.45 127.335 40.46L129.405 40.475L131.52 40.46C131.69 40.45 131.885 40.445 132.105 40.445C132.175 40.445 132.215 40.455 132.225 40.475C132.235 40.485 132.24 40.52 132.24 40.58C132.19 41.58 132.165 42.19 132.165 42.41C132.165 42.43 132.135 42.44 132.075 42.44C132.025 42.44 131.995 42.43 131.985 42.41C131.865 41.95 131.665 41.565 131.385 41.255C131.115 40.945 130.835 40.79 130.545 40.79C130.385 40.79 130.275 40.855 130.215 40.985C130.165 41.115 130.14 41.355 130.14 41.705V45.035C130.14 45.335 130.16 45.56 130.2 45.71C130.24 45.85 130.315 45.945 130.425 45.995C130.545 46.045 130.72 46.07 130.95 46.07C130.98 46.07 130.995 46.1 130.995 46.16C130.995 46.22 130.98 46.25 130.95 46.25C130.67 46.25 130.455 46.245 130.305 46.235L129.465 46.22L128.595 46.235C128.435 46.245 128.21 46.25 127.92 46.25Z" fill="white"/>
<path d="M138.432 45.26C138.452 45.26 138.472 45.28 138.492 45.32C138.522 45.36 138.527 45.39 138.507 45.41C138.137 45.77 137.762 46.03 137.382 46.19C137.002 46.35 136.587 46.43 136.137 46.43C135.507 46.43 134.962 46.3 134.502 46.04C134.042 45.77 133.692 45.415 133.452 44.975C133.212 44.525 133.092 44.04 133.092 43.52C133.092 42.94 133.237 42.405 133.527 41.915C133.817 41.425 134.217 41.04 134.727 40.76C135.247 40.47 135.832 40.325 136.482 40.325C137.102 40.325 137.582 40.465 137.922 40.745C138.262 41.025 138.432 41.46 138.432 42.05C138.432 42.36 138.377 42.515 138.267 42.515L134.622 42.53C134.612 42.6 134.607 42.715 134.607 42.875C134.607 43.755 134.807 44.445 135.207 44.945C135.617 45.445 136.202 45.695 136.962 45.695C137.232 45.695 137.462 45.665 137.652 45.605C137.842 45.545 138.092 45.435 138.402 45.275L138.432 45.26ZM135.912 40.625C135.582 40.625 135.307 40.77 135.087 41.06C134.867 41.34 134.722 41.73 134.652 42.23L136.827 42.2C136.817 41.69 136.742 41.3 136.602 41.03C136.462 40.76 136.232 40.625 135.912 40.625Z" fill="white"/>
<path d="M145.482 46.07C145.532 46.07 145.557 46.1 145.557 46.16C145.557 46.22 145.532 46.25 145.482 46.25C145.302 46.25 145.022 46.24 144.642 46.22C144.242 46.2 143.952 46.19 143.772 46.19C143.612 46.19 143.352 46.2 142.992 46.22C142.652 46.24 142.412 46.25 142.272 46.25C142.232 46.25 142.212 46.22 142.212 46.16C142.212 46.1 142.232 46.07 142.272 46.07C142.492 46.07 142.652 46.045 142.752 45.995C142.852 45.935 142.902 45.85 142.902 45.74C142.902 45.66 142.872 45.555 142.812 45.425C142.762 45.285 142.702 45.14 142.632 44.99L141.372 42.305L140.472 44.405C140.292 44.825 140.202 45.165 140.202 45.425C140.202 45.855 140.442 46.07 140.922 46.07C140.972 46.07 140.997 46.1 140.997 46.16C140.997 46.22 140.972 46.25 140.922 46.25C140.812 46.25 140.657 46.24 140.457 46.22C140.257 46.2 140.067 46.19 139.887 46.19C139.677 46.19 139.472 46.2 139.272 46.22C139.092 46.24 138.932 46.25 138.792 46.25C138.742 46.25 138.717 46.22 138.717 46.16C138.717 46.1 138.742 46.07 138.792 46.07C138.972 46.07 139.162 45.945 139.362 45.695C139.572 45.435 139.827 44.96 140.127 44.27L141.867 40.235C141.887 40.195 141.917 40.175 141.957 40.175C141.997 40.175 142.027 40.195 142.047 40.235L143.907 44.195C144.167 44.765 144.367 45.175 144.507 45.425C144.647 45.665 144.787 45.835 144.927 45.935C145.067 46.025 145.252 46.07 145.482 46.07Z" fill="white"/>
<path d="M150.942 45.26C150.962 45.26 150.982 45.28 151.002 45.32C151.032 45.36 151.037 45.39 151.017 45.41C150.647 45.77 150.272 46.03 149.892 46.19C149.512 46.35 149.097 46.43 148.647 46.43C148.017 46.43 147.472 46.3 147.012 46.04C146.552 45.77 146.202 45.415 145.962 44.975C145.722 44.525 145.602 44.04 145.602 43.52C145.602 42.94 145.747 42.405 146.037 41.915C146.327 41.425 146.727 41.04 147.237 40.76C147.757 40.47 148.342 40.325 148.992 40.325C149.612 40.325 150.092 40.465 150.432 40.745C150.772 41.025 150.942 41.46 150.942 42.05C150.942 42.36 150.887 42.515 150.777 42.515L147.132 42.53C147.122 42.6 147.117 42.715 147.117 42.875C147.117 43.755 147.317 44.445 147.717 44.945C148.127 45.445 148.712 45.695 149.472 45.695C149.742 45.695 149.972 45.665 150.162 45.605C150.352 45.545 150.602 45.435 150.912 45.275L150.942 45.26ZM148.422 40.625C148.092 40.625 147.817 40.77 147.597 41.06C147.377 41.34 147.232 41.73 147.162 42.23L149.337 42.2C149.327 41.69 149.252 41.3 149.112 41.03C148.972 40.76 148.742 40.625 148.422 40.625Z" fill="white"/>
<path d="M155.322 39.215C154.932 39.215 154.562 39.15 154.212 39.02C153.872 38.89 153.597 38.72 153.387 38.51C153.187 38.29 153.087 38.055 153.087 37.805C153.087 37.625 153.142 37.485 153.252 37.385C153.362 37.275 153.522 37.22 153.732 37.22C153.922 37.22 154.062 37.265 154.152 37.355C154.252 37.435 154.322 37.535 154.362 37.655C154.402 37.765 154.442 37.93 154.482 38.15C154.522 38.41 154.592 38.615 154.692 38.765C154.802 38.905 155.007 38.975 155.307 38.975C155.607 38.975 155.822 38.9 155.952 38.75C156.082 38.59 156.167 38.37 156.207 38.09C156.267 37.79 156.337 37.57 156.417 37.43C156.507 37.29 156.672 37.22 156.912 37.22C157.112 37.22 157.267 37.275 157.377 37.385C157.487 37.485 157.542 37.625 157.542 37.805C157.542 38.055 157.437 38.29 157.227 38.51C157.017 38.73 156.742 38.905 156.402 39.035C156.062 39.155 155.702 39.215 155.322 39.215ZM158.802 46.07C158.822 46.07 158.832 46.1 158.832 46.16C158.832 46.22 158.822 46.25 158.802 46.25C158.512 46.25 158.287 46.245 158.127 46.235L157.302 46.22L156.417 46.235C156.257 46.245 156.037 46.25 155.757 46.25C155.737 46.25 155.727 46.22 155.727 46.16C155.727 46.1 155.737 46.07 155.757 46.07C155.997 46.07 156.172 46.045 156.282 45.995C156.402 45.945 156.482 45.85 156.522 45.71C156.562 45.56 156.582 45.335 156.582 45.035V42.035L152.937 46.31C152.907 46.35 152.842 46.37 152.742 46.37C152.692 46.37 152.642 46.36 152.592 46.34C152.542 46.33 152.517 46.32 152.517 46.31V41.675C152.517 41.375 152.497 41.155 152.457 41.015C152.417 40.865 152.342 40.765 152.232 40.715C152.122 40.665 151.947 40.64 151.707 40.64C151.687 40.64 151.677 40.61 151.677 40.55C151.677 40.49 151.687 40.46 151.707 40.46C151.937 40.46 152.112 40.465 152.232 40.475L153.192 40.49L154.407 40.475C154.497 40.465 154.607 40.46 154.737 40.46C154.767 40.46 154.782 40.49 154.782 40.55C154.782 40.61 154.767 40.64 154.737 40.64C154.497 40.64 154.317 40.665 154.197 40.715C154.087 40.765 154.012 40.865 153.972 41.015C153.932 41.155 153.912 41.375 153.912 41.675V44.705L157.572 40.415C157.602 40.365 157.667 40.34 157.767 40.34C157.827 40.34 157.877 40.35 157.917 40.37C157.967 40.38 157.992 40.395 157.992 40.415V45.035C157.992 45.335 158.012 45.56 158.052 45.71C158.092 45.85 158.167 45.945 158.277 45.995C158.387 46.045 158.562 46.07 158.802 46.07Z" fill="white"/>
</svg>
